<svg width="128" height="32" viewBox="0 0 128 32" fill="none" xmlns="http://www.w3.org/2000/svg">
<g clip-path="url(#clip0_872_157)">
<path d="M3.87276 0.710938L10.6338 23.9998L16.6071 3.02205L22.7117 24.0887L29.2758 0.710938H31.1138L22.3835 31.6443H21.2676L15.6881 12.4443L10.3056 31.5554H8.99276L0.131226 0.710938H3.87276Z" fill="#3F3B3D"/>
<path d="M38.9251 0L49.559 31.2889H45.6862L42.2072 21.0667H32.5579L29.0133 31.2889H27.1097L38.0062 0H38.9251ZM33.2144 19.1111H41.5508L37.4154 7.11111L33.2144 19.1111Z" fill="#3F3B3D"/>
<path d="M53.0379 0.710938H56.7795V29.3332H68.1354V31.2887H52.9723V0.710938H53.0379Z" fill="#3F3B3D"/>
<path d="M105.222 0.710938V2.66649H93.3414V13.6887H101.284V15.6443H93.3414V29.3332H105.222V31.2887H89.4686V0.710938H105.222Z" fill="#3F3B3D"/>
<path d="M109.227 0.710938H111.327L126.096 23.1109H126.228V0.710938H127.869V31.9998H127.081L111.065 7.19983H110.933V31.3776H109.161L109.227 0.710938Z" fill="#3F3B3D"/>
<path d="M84.9394 9.42207C84.283 7.5554 83.364 5.77763 82.0512 4.3554C80.9353 3.11096 79.4912 2.13318 77.8501 1.51096C76.2091 0.888737 74.1742 0.62207 71.8112 0.62207H64.2625V24.7998H68.1353V2.93318H72.205C73.5835 2.93318 74.8307 3.19985 75.8809 3.91096C77.0624 4.53318 77.9814 5.42207 78.7691 6.57763C79.5568 7.73318 80.2132 9.1554 80.6727 10.6665C81.1322 12.2665 81.3291 14.0443 81.3291 15.911C81.3291 18.0443 81.1322 19.911 80.6071 21.5998C80.0819 23.2887 79.4255 24.6221 78.6378 25.6887C77.7845 26.7554 76.7999 27.6443 75.684 28.2665C74.5025 28.8887 73.3866 29.1554 72.0737 29.1554H71.4173V31.3776H72.6645C74.765 31.3776 76.6686 31.0221 78.244 30.1332C79.8194 29.3332 81.1978 28.1776 82.3794 26.7554C83.4953 25.4221 84.3486 23.7332 84.9394 21.7776C85.5301 19.911 85.7927 17.8665 85.7927 15.7332C85.8583 13.4221 85.5958 11.3776 84.9394 9.42207Z" fill="#3F3B3D"/>
</g>
<defs>
<clipPath id="clip0_872_157">
<rect width="128" height="32" fill="white"/>
</clipPath>
</defs>
</svg>
