<svg width="128" height="32" viewBox="0 0 128 32" fill="none" xmlns="http://www.w3.org/2000/svg">
<g clip-path="url(#clip0_872_175)">
<path d="M44.8831 10.7549C45.2987 10.7549 45.6312 10.7549 45.7143 10.8438C45.7974 10.9327 45.7974 11.0216 45.7974 11.3771C45.7974 11.5549 45.8805 11.8216 45.9636 11.8216C46.0467 11.8216 46.2961 11.7327 46.7117 11.3771C47.0441 11.1993 47.2935 10.9327 47.7922 10.8438C48.2078 10.7549 48.6234 10.666 49.0389 10.666C49.8701 10.666 50.6182 11.0216 51.2831 11.6438C51.7818 12.0882 52.1974 12.7105 52.5299 13.5105C52.8623 14.3105 52.9454 15.0216 52.9454 15.9105C52.9454 17.7771 52.3636 19.1105 51.2 20.3549C50.2857 21.2438 49.3714 21.7771 48.2909 21.7771C47.7091 21.7771 47.2104 21.6882 46.5454 21.3327C46.4623 21.2438 46.3792 21.2438 46.213 21.2438C46.0467 21.2438 45.8805 21.4216 45.8805 21.866C45.8805 22.3993 46.0467 22.8438 46.3792 23.0216C46.7117 23.1993 46.8779 23.466 46.961 23.466C47.0441 23.5549 47.0441 23.6438 47.0441 23.9105C47.0441 24.3549 46.8779 24.7105 46.2961 24.8882C45.8805 25.066 45.2156 25.2438 44.3844 25.2438C42.9714 25.2438 41.6415 24.8882 40.561 24.266C40.0623 23.9105 39.7299 23.6438 39.7299 23.1105C39.7299 22.9327 39.7299 22.7549 39.813 22.666C39.8961 22.5771 39.9792 22.4882 40.3117 22.3105C40.6441 22.1327 40.8935 21.866 40.8935 21.3327C40.9766 20.8882 40.9766 19.6438 41.0597 17.4216C41.0597 15.7327 40.9766 14.7549 40.8935 14.4882C40.8935 14.3993 40.8104 14.3993 40.8104 14.3993C40.8104 14.3993 40.7273 14.2216 40.3948 14.2216C40.2286 14.2216 39.9792 14.1327 39.8961 13.866C39.813 13.6882 39.7299 13.5105 39.7299 13.2438C39.7299 12.9771 39.813 12.7105 40.0623 12.4438C40.2286 12.266 40.561 11.9993 40.9766 11.8216C42.6389 11.1993 43.9688 10.7549 44.8831 10.7549ZM45.8805 14.7549L45.7974 17.6882C45.7974 17.7771 45.7974 17.866 45.7974 18.0438C45.7974 18.2216 45.8805 18.4882 46.1299 18.5771C46.2961 18.666 46.5454 18.7549 46.8779 18.7549C47.7922 18.7549 48.2909 17.9549 48.2909 16.3549C48.2909 15.2882 48.1247 14.666 47.7091 14.2216C47.5428 14.0438 47.2104 13.7771 46.8779 13.7771C46.213 13.7771 45.8805 14.1327 45.8805 14.7549Z" fill="#3F3B3D"/>
<path d="M62.8363 16.5326H58.1818C58.0155 16.5326 57.8493 16.6215 57.8493 16.8881C57.8493 17.3326 58.0155 17.777 58.5974 18.2215C59.1792 18.6659 59.5948 18.8437 60.0935 18.8437C60.4259 18.8437 60.8415 18.7548 61.174 18.6659C61.5896 18.577 61.922 18.3104 62.1714 18.2215C62.3376 18.0437 62.587 18.0437 62.6701 18.0437C62.8363 18.0437 63.0025 18.1326 63.1688 18.3992C63.335 18.577 63.335 18.8437 63.335 19.1992C63.335 19.7326 63.0025 20.177 62.4207 20.7104C61.4233 21.5992 60.0935 22.0437 58.7636 22.0437C57.3506 22.0437 56.2701 21.5992 55.1896 20.7104C54.6909 20.2659 54.3584 19.7326 54.109 19.1992C53.6935 18.3992 53.5272 17.5992 53.5272 16.6215C53.5272 15.4659 53.8597 14.3104 54.5246 13.4215C55.1064 12.5326 55.8545 11.9992 56.7688 11.5548C57.5168 11.1992 58.1818 11.1104 59.0129 11.1104C60.3428 11.1104 61.3402 11.5548 62.2545 12.2659C62.6701 12.7104 63.0857 13.1548 63.335 13.6881C63.6675 14.3104 63.8337 14.8437 63.8337 15.377C63.8337 15.8215 63.7506 16.2659 63.5012 16.5326C63.335 16.3548 63.1688 16.5326 62.8363 16.5326ZM58.4311 14.577H59.4285C59.8441 14.577 60.0103 14.3992 60.0103 13.9548C60.0103 13.5104 59.9272 13.3326 59.6779 12.977C59.5116 12.7992 59.1792 12.6215 58.8467 12.6215C58.4311 12.6215 58.0986 12.7104 57.9324 13.0659C57.7662 13.4215 57.6 13.5992 57.6 13.9548C57.6 14.1326 57.5999 14.3104 57.6831 14.3992C58.0155 14.577 58.1818 14.577 58.4311 14.577Z" fill="#3F3B3D"/>
<path d="M70.2337 13.5101V17.0656C70.2337 17.5101 70.3168 17.8656 70.5662 18.1323C70.7324 18.4879 70.9818 18.5768 71.3143 18.5768C71.6467 18.5768 71.8961 18.4879 72.3117 18.1323C72.4779 18.1323 72.6441 18.1323 72.7272 18.1323C72.8935 18.1323 73.0597 18.2212 73.1428 18.4879C73.2259 18.6656 73.3091 18.9323 73.3091 19.1101C73.3091 19.5545 73.1428 19.999 72.561 20.4434C71.6467 21.3323 70.4 21.7768 69.1532 21.7768C68.0727 21.7768 67.2415 21.4212 66.6597 20.799C66.0779 20.1768 65.6623 19.2879 65.6623 18.2212V13.2434C65.6623 13.0656 65.6623 13.0656 65.5792 12.8879C65.5792 12.8879 65.4961 12.799 65.2467 12.799H64.2493C64.0831 12.799 63.9168 12.799 63.8337 12.7101C63.7506 12.6212 63.7506 12.5323 63.7506 12.2656V11.8212C63.7506 11.6434 63.8337 11.4656 63.9168 11.3768L68.6545 8.26565C68.7376 8.17676 68.987 8.17676 69.0701 8.17676H69.9013C70.0675 8.17676 70.2337 8.17676 70.2337 8.26565C70.3168 8.35454 70.3168 8.44342 70.3168 8.71009V10.1323C70.3168 10.3101 70.3168 10.4879 70.4 10.5768C70.4831 10.6656 70.5662 10.6656 70.8155 10.6656H72.6441C72.8104 10.6656 73.0597 10.6656 73.1428 10.7545C73.2259 10.8434 73.2259 11.1101 73.2259 11.3768V11.999C73.2259 12.3545 73.2259 12.5323 73.1428 12.799C73.0597 12.8879 72.8104 12.9768 72.6441 12.9768H70.8155C70.6493 12.9768 70.4831 12.9768 70.4 13.0656C70.2337 13.1545 70.2337 13.2434 70.2337 13.5101Z" fill="#3F3B3D"/>
<path d="M77.7973 10.666C78.1298 10.666 78.7116 10.7549 79.3766 10.8438C79.5428 10.8438 79.709 10.8438 79.7922 10.8438C79.8753 10.8438 80.1246 10.7549 80.5402 10.666C80.7064 10.5771 80.8727 10.5771 80.9558 10.5771C81.2883 10.5771 81.5376 10.7549 81.8701 11.1994C82.2025 11.5549 82.3688 11.8216 82.4519 12.266C82.6181 12.7105 82.6181 13.066 82.6181 13.3327C82.6181 13.6883 82.535 13.866 82.2857 14.1327C82.1194 14.3105 81.8701 14.4883 81.5376 14.4883C81.3714 14.4883 81.122 14.3994 80.9558 14.3105C80.7896 14.2216 80.4571 13.866 80.0415 13.5105C79.6259 13.066 79.2103 12.8883 79.0441 12.8883C78.8779 12.8883 78.7116 12.9771 78.5454 13.066C78.4623 13.1549 78.3792 13.4216 78.3792 13.5994C78.3792 13.9549 78.7116 14.2216 79.2935 14.5771C80.374 15.1105 81.2883 15.6438 81.9532 16.266C82.4519 16.7994 82.7844 17.4216 82.7844 18.2216C82.7844 19.1994 82.3688 20.0883 81.5376 20.7105C80.7896 21.2438 80.0415 21.5994 79.0441 21.5994C78.7116 21.5994 78.2961 21.5994 77.6311 21.5105C76.9662 21.3327 76.5506 21.3327 76.4675 21.3327C76.3844 21.3327 76.3012 21.3327 76.135 21.3327C75.9688 21.3327 75.8025 21.3327 75.7194 21.3327C75.387 21.3327 75.1376 21.2438 74.9714 21.1549C74.6389 20.9771 74.4727 20.5327 74.1402 19.8216C73.974 19.2883 73.8077 18.7549 73.8077 18.3994C73.8077 17.7771 73.974 17.4216 74.5558 17.4216C74.722 17.4216 74.9714 17.5105 75.0545 17.5994C75.2207 17.6883 75.5532 18.0438 76.0519 18.666C76.3844 19.0216 76.5506 19.1994 76.7999 19.2883C76.9662 19.3771 77.2155 19.466 77.3818 19.466C77.548 19.466 77.7973 19.3771 77.8805 19.2883C77.9636 19.1994 78.0467 18.9327 78.0467 18.7549C78.0467 18.3994 77.7142 18.1327 77.2155 17.866C76.135 17.3327 75.387 16.7105 74.8883 16.1771C74.3896 15.5549 74.1402 14.8438 74.1402 14.1327C74.1402 13.2438 74.3064 12.5327 74.8883 11.9994C75.5532 11.1105 76.5506 10.666 77.7973 10.666Z" fill="#3F3B3D"/>
<path d="M88.3532 10.7549C88.7688 10.7549 89.1013 10.7549 89.1844 10.8438C89.2675 10.9327 89.2675 11.0216 89.2675 11.3771C89.2675 11.5549 89.3506 11.8216 89.4337 11.8216C89.5168 11.8216 89.7662 11.7327 90.1818 11.3771C90.5142 11.1993 90.7636 10.9327 91.2623 10.8438C91.6779 10.7549 92.0935 10.666 92.509 10.666C93.3402 10.666 94.0883 11.0216 94.7532 11.6438C95.2519 12.0882 95.6675 12.7105 96 13.5105C96.3324 14.3105 96.4155 15.0216 96.4155 15.9105C96.4155 17.7771 95.8337 19.1105 94.6701 20.3549C93.7558 21.2438 92.8415 21.7771 91.761 21.7771C91.1792 21.7771 90.6805 21.6882 90.0155 21.3327C89.9324 21.2438 89.8493 21.2438 89.6831 21.2438C89.5168 21.2438 89.3506 21.4216 89.3506 21.866C89.3506 22.3993 89.5168 22.8438 89.8493 23.0216C90.1818 23.1993 90.348 23.466 90.4311 23.466C90.5142 23.5549 90.5142 23.6438 90.5142 23.9105C90.5142 24.3549 90.348 24.7105 89.7662 24.8882C89.3506 25.066 88.6857 25.2438 87.8545 25.2438C86.4415 25.2438 85.1116 24.8882 84.0311 24.266C83.5324 23.9105 83.2 23.6438 83.2 23.1105C83.2 22.9327 83.1999 22.7549 83.2831 22.666C83.3662 22.5771 83.4493 22.4882 83.7818 22.3105C84.1142 22.1327 84.3636 21.866 84.3636 21.3327C84.4467 20.8882 84.4467 19.6438 84.5298 17.4216C84.5298 15.7327 84.4467 14.7549 84.3636 14.4882C84.3636 14.3993 84.2805 14.3993 84.2805 14.3993C84.2805 14.3993 84.1974 14.2216 83.948 14.2216C83.7818 14.2216 83.5324 14.1327 83.4493 13.866C83.3662 13.6882 83.2831 13.5105 83.2831 13.2438C83.2831 12.9771 83.3662 12.7105 83.6155 12.4438C83.7818 12.266 84.1142 11.9993 84.5298 11.8216C86.1922 11.1993 87.3558 10.7549 88.3532 10.7549ZM89.3506 14.7549L89.2675 17.6882C89.2675 17.7771 89.2675 17.866 89.2675 18.0438C89.2675 18.2216 89.3506 18.4882 89.6 18.5771C89.7662 18.666 90.0155 18.7549 90.348 18.7549C91.2623 18.7549 91.761 17.9549 91.761 16.3549C91.761 15.2882 91.5948 14.666 91.1792 14.2216C91.0129 14.0438 90.6805 13.7771 90.348 13.7771C89.6831 13.7771 89.3506 14.1327 89.3506 14.7549Z" fill="#3F3B3D"/>
<path d="M102.732 12.7994V16.266C102.732 17.7771 102.732 18.666 102.816 18.8438C102.816 19.0216 102.982 19.2883 103.314 19.3771C103.481 19.466 103.73 19.5549 103.813 19.7327C103.896 19.8216 103.896 19.9105 103.896 20.1771C103.896 20.3549 103.813 20.6216 103.73 20.7994C103.564 20.9771 103.314 21.1549 103.148 21.2438C102.649 21.3327 101.818 21.4216 100.738 21.4216C99.4078 21.4216 98.4935 21.3327 97.9948 21.066C97.8286 20.9771 97.5792 20.8883 97.413 20.6216C97.2468 20.4438 97.2468 20.1771 97.2468 19.9994C97.2468 19.8216 97.2468 19.6438 97.3299 19.5549C97.413 19.466 97.6624 19.3771 97.8286 19.1994C98.1611 19.1105 98.2442 18.7549 98.3273 18.2216C98.4104 17.2438 98.4935 15.9105 98.4935 14.2216C98.4935 12.5327 98.4935 11.3771 98.4104 10.8438C98.3273 10.3105 98.0779 9.95493 97.6624 9.77715C97.3299 9.59937 97.1637 9.42159 97.0805 9.3327C96.9974 9.24381 96.9143 9.15493 96.9143 8.88826C96.9143 8.5327 97.0805 8.26604 97.413 7.99937C97.7455 7.82159 98.2442 7.46604 98.9091 7.19937C99.4078 7.11048 99.9065 6.84381 100.738 6.75493C101.486 6.66604 102.068 6.57715 102.317 6.57715C102.816 6.57715 103.148 6.9327 103.148 7.64382C103.148 7.82159 103.148 8.44381 103.065 9.24381C102.816 10.666 102.816 11.8216 102.732 12.7994Z" fill="#3F3B3D"/>
<path d="M110.213 10.666C111.293 10.666 112.374 11.0216 113.122 11.6438C113.538 11.9993 113.87 12.4438 114.036 12.7993C114.203 13.2438 114.369 13.7771 114.369 14.4882V16.0882C114.369 17.1549 114.452 17.9549 114.535 18.2216C114.618 18.3105 114.618 18.3993 114.701 18.5771C114.784 18.5771 114.868 18.666 115.117 18.666C115.366 18.666 115.449 18.8438 115.449 19.1105C115.449 19.466 115.366 19.7327 115.034 20.1771C114.701 20.5327 114.452 20.7993 114.036 21.1549C113.538 21.5105 113.039 21.5993 112.457 21.5993C111.709 21.5993 111.21 21.4216 110.878 20.7993C110.795 20.6216 110.545 20.4438 110.462 20.4438C110.379 20.4438 110.13 20.5327 109.964 20.6216C109.216 21.1549 108.551 21.4216 107.719 21.4216C106.805 21.4216 106.14 21.2438 105.558 20.7993C105.226 20.6216 104.977 20.1771 104.727 19.7327C104.561 19.2882 104.395 18.8438 104.395 18.3993C104.395 17.5993 104.727 16.9771 105.226 16.4438C106.14 15.5549 107.47 15.1105 109.132 15.0216C109.548 15.0216 109.714 15.0216 109.88 14.9327C109.964 14.8438 109.964 14.5771 109.964 14.3993C109.964 13.5993 109.88 13.066 109.797 12.7993C109.714 12.5327 109.382 12.266 109.049 12.266C108.883 12.266 108.634 12.3549 108.551 12.4438C108.384 12.5327 108.218 12.7993 107.969 13.2438C107.387 14.1327 106.722 14.666 106.14 14.666C105.808 14.666 105.558 14.5771 105.309 14.3105C105.06 14.0438 104.977 13.866 104.977 13.4216C104.977 13.066 105.06 12.7993 105.392 12.4438C105.725 12.0882 105.974 11.8216 106.39 11.5549C107.636 11.0216 108.883 10.666 110.213 10.666ZM109.548 16.7993C109.216 16.7993 109.049 16.8882 108.717 17.2438C108.551 17.4216 108.384 17.7771 108.384 18.1327C108.384 18.4882 108.468 18.7549 108.551 19.0216C108.717 19.1993 108.966 19.3771 109.132 19.3771C109.631 19.3771 109.964 18.9327 109.964 17.9549C109.964 17.5105 109.964 17.3327 109.88 17.1549C109.88 16.8882 109.797 16.7993 109.548 16.7993Z" fill="#3F3B3D"/>
<path d="M125.008 15.9994L123.678 19.9105C123.345 20.8883 123.096 21.5994 122.68 22.3105C122.348 22.9327 121.932 23.3771 121.6 23.8216C120.686 24.7105 119.688 25.1549 118.442 25.1549C117.444 25.1549 116.613 24.7994 116.031 24.266C115.532 23.8216 115.283 23.2883 115.283 22.666C115.283 22.1327 115.449 21.6883 115.782 21.2438C116.114 20.8883 116.53 20.7105 117.029 20.7105C117.527 20.7105 117.943 20.8883 118.109 21.2438C118.192 21.3327 118.275 21.5994 118.442 21.6883C118.442 21.7771 118.525 22.1327 118.608 22.4883C118.691 22.8438 118.774 22.9327 119.106 22.9327C119.273 22.9327 119.522 22.8438 119.605 22.5771C119.688 22.3994 119.771 22.1327 119.771 21.7771C119.771 21.4216 119.605 20.8883 119.273 20.0883L116.862 14.5771C116.53 14.0438 116.447 13.5994 116.28 13.5105C116.197 13.4216 115.865 13.1549 115.449 12.9771C115.366 12.8883 115.283 12.7994 115.117 12.6216C114.951 12.4438 115.034 12.266 115.034 12.1771C115.034 11.5549 115.616 11.1105 116.779 10.8438C117.61 10.7549 118.525 10.666 119.522 10.666C120.27 10.666 120.769 10.7549 121.101 10.8438C121.6 11.0216 121.932 11.3771 121.932 11.9105C121.932 12.0883 121.849 12.3549 121.766 12.5327C121.683 12.7105 121.6 12.9771 121.6 13.1549C121.6 13.3327 121.6 13.5105 121.683 13.6883C121.766 13.866 121.849 14.2216 122.099 14.666C122.431 15.1994 122.597 15.466 122.847 15.466C123.013 15.466 123.262 15.2883 123.429 14.8438C123.595 14.3994 123.761 13.9549 123.761 13.5105C123.761 13.1549 123.678 12.9771 123.595 12.7105C123.262 12.3549 123.179 12.1771 123.179 11.8216C123.179 11.466 123.345 11.1994 123.927 10.9327C124.343 10.7549 124.925 10.5771 125.756 10.5771C127.169 10.5771 127.917 10.9327 127.917 11.6438C127.917 11.8216 127.834 12.0883 127.751 12.266C127.667 12.3549 127.335 12.6216 126.919 12.7105C126.587 12.7994 126.338 13.066 126.088 13.3327C125.756 14.0438 125.423 14.8438 125.008 15.9994Z" fill="#3F3B3D"/>
<path d="M5.56884 27.7325C4.73768 27.9103 4.48833 28.177 3.98962 28.6214C3.98962 29.4214 4.07274 30.0436 4.07274 30.9325C4.07274 31.377 4.48833 32.0881 5.48573 31.4658C6.15066 30.9325 5.8182 28.4436 6.73248 27.377C6.3169 27.377 5.98443 27.6436 5.56884 27.7325Z" fill="#3F3B3D"/>
<path d="M33.2467 17.3333C32.1662 17.4222 28.5922 17.5111 26.5143 16C26.5143 16.0889 26.5974 16.1778 26.6805 16.3556C27.9273 18.2222 29.6727 19.2 31.2519 19.5556C32 19.4667 32.5818 19.3778 33.2467 19.0222C34.4935 18.6667 33.9948 17.2444 33.2467 17.3333Z" fill="#3F3B3D"/>
<path d="M14.6286 3.19918C16.2078 2.39918 18.3688 3.8214 20.2805 6.39918C20.613 6.31029 20.8624 6.04362 21.1948 5.95473C19.1169 3.19918 16.7065 1.77695 14.9611 2.57695C14.213 2.93251 13.7143 3.46584 13.3818 4.26584C13.7974 3.73251 14.213 3.46584 14.6286 3.19918Z" fill="#3F3B3D"/>
<path d="M24.5195 22.0439C24.187 23.4662 23.5221 24.5328 22.6078 24.9773C22.1091 25.1551 21.6104 25.1551 21.1117 25.0662C21.9429 25.4217 22.6078 25.4217 23.3559 25.0662C24.2701 24.6217 24.9351 23.6439 25.3507 22.3995C25.0182 22.2217 24.6857 22.1328 24.5195 22.0439Z" fill="#3F3B3D"/>
<path d="M21.1948 4.53291C18.9507 1.95513 16.4572 0.621795 14.2961 1.51068C10.9715 2.93291 10.2234 9.68846 12.7169 16.5329C15.2104 23.3774 19.9481 27.7329 23.3559 26.3996C24.6857 25.8662 25.6 24.5329 26.0156 22.7551C26.1818 22.1329 26.5143 26.6662 23.0234 28.0885C19.4494 29.5996 14.3792 24.7107 11.5533 17.1551C8.7273 9.51068 9.55846 2.04402 13.1325 0.444017C15.3766 -0.800428 18.5351 1.06624 21.1948 4.53291Z" fill="#3F3B3D"/>
<path d="M10.1403 16.8888C8.39484 11.9999 8.22861 7.11105 9.55848 4.2666C7.97926 5.24438 6.73251 9.24438 7.97926 14.6666C6.06757 15.8222 5.15329 16.1777 3.15848 15.6444C1.57926 15.1999 0.997442 13.511 0.914325 13.6888C-0.498662 16.6222 2.65978 18.8444 4.48835 18.7555C4.32212 21.8666 2.49355 23.5555 1.66238 24.711C0.664974 26.311 0.415623 28.3555 0.24939 31.111C0.24939 31.5555 0.581857 32.4444 1.57926 31.911C2.16108 31.5555 2.16108 29.0666 3.32471 28.0888C4.32212 27.1999 4.7377 27.2888 6.64939 26.5777C8.81043 25.6888 10.7221 24.2666 10.8884 22.3999C10.9715 22.5777 11.2208 22.9333 11.3871 23.1999C14.0468 27.2888 16.2078 26.5777 16.2078 26.5777C13.5481 24.4444 11.5533 20.711 10.1403 16.8888Z" fill="#3F3B3D"/>
<path d="M32.2493 4.44378C32.4156 3.82156 32.748 2.31045 32.0831 1.77712C31.7506 1.59934 31.335 2.57712 30.3376 3.19934C30.8363 3.28823 31.7506 3.73267 32.2493 4.44378Z" fill="#3F3B3D"/>
<path d="M33.6624 20.7997C32.1663 20.7997 28.1766 19.9997 26.0987 16.7997C24.1039 13.5997 26.265 10.133 29.9221 11.1997C35.6572 12.8886 35.9065 9.68858 35.7403 8.62192C34.0779 7.9997 32.8312 7.82192 32.665 6.66636C32.1663 4.17747 29.9221 3.9997 29.3403 3.64414C29.2572 3.1997 28.7585 1.24414 27.7611 1.24414C27.2624 1.24414 27.6779 3.28858 26.1818 4.71081C21.4442 6.66636 16.7065 9.15525 12.6338 11.733C12.8 13.1553 13.2156 14.6664 13.8805 16.1775C14.3792 17.6886 15.1273 19.1108 15.7922 20.2664C16.7896 20.2664 18.0364 20.2664 19.6156 20.3553C24.9351 20.533 28.8416 23.5553 33.5792 22.7553C34.6598 22.3108 34.4104 20.8886 33.6624 20.7997ZM30.5039 6.22192C30.8364 6.22192 30.9195 6.3997 30.9195 6.75525C30.9195 7.11081 30.7533 7.1997 30.4208 7.1997C30.0883 7.1997 30.0052 7.02192 30.0052 6.66636C30.1715 6.48858 30.3377 6.22192 30.5039 6.22192Z" fill="#3F3B3D"/>
</g>
<defs>
<clipPath id="clip0_872_175">
<rect width="128" height="32" fill="white"/>
</clipPath>
</defs>
</svg>
